<svg aria-hidden="true" style="position: absolute; width: 0; height: 0; overflow: hidden;" version="1.1" xmlns="http://www.w3.org/2000/svg" xmlns:xlink="http://www.w3.org/1999/xlink">
<defs>
<symbol id="alarm" viewBox="0 0 33 32">
<title>alarm</title>
<path d="M31.732 9.81c-1.635-3.815-4.694-6.875-8.509-8.509 1.032-0.812 2.331-1.301 3.746-1.301 3.349 0 6.063 2.715 6.063 6.063 0 1.415-0.488 2.714-1.301 3.746zM31.484 16.516c0 3.976-1.561 7.58-4.091 10.261l2.094 2.093c0.277 0.278 0.448 0.66 0.448 1.083 0 0.845-0.685 1.531-1.531 1.531-0.423 0-0.806-0.171-1.083-0.449l-2.248-2.248c-2.427 1.695-5.373 2.697-8.557 2.697-3.178 0-6.119-0.997-8.543-2.687l-2.233 2.233c-0.281 0.281-0.668 0.454-1.095 0.454-0.855 0-1.548-0.694-1.548-1.549 0-0.426 0.173-0.814 0.453-1.094l2.077-2.077c-2.522-2.679-4.078-6.278-4.078-10.247 0-8.266 6.701-14.968 14.968-14.968s14.968 6.701 14.968 14.968zM16.516 4.645c-6.556 0-11.871 5.314-11.871 11.871 0 6.556 5.315 11.871 11.871 11.871s11.871-5.315 11.871-11.871c0-6.557-5.315-11.871-11.871-11.871zM22.71 18.065h-6.194c-0.855 0-1.548-0.694-1.548-1.548v-8.258c0-0.855 0.694-1.548 1.548-1.548s1.548 0.694 1.548 1.548v6.709h4.645c0.855 0 1.548 0.694 1.548 1.549 0 0.855-0.694 1.548-1.548 1.548zM1.329 10.018c-0.83-1.053-1.329-2.379-1.329-3.825 0-3.421 2.773-6.194 6.194-6.194 1.445 0 2.772 0.499 3.826 1.329-3.897 1.669-7.021 4.794-8.691 8.69z"></path>
</symbol>
<symbol id="basket" viewBox="0 0 38 32">
<title>basket</title>
<path d="M37.815 7.814h0.002l-5.28 11.733c-0.26 0.578-0.823 0.99-1.487 1.035v0l-15.206 1.013 0.879 2.509h16.557c1.943 0 3.52 1.577 3.52 3.522 0 1.943-1.577 3.52-3.52 3.52s-3.52-1.577-3.52-3.52h-16.427c0 1.943-1.577 3.52-3.52 3.52s-3.52-1.577-3.52-3.52c0-1.946 1.577-3.522 3.52-3.522h3.181l-6.775-19.358h-4.032c-0.973 0-1.76-0.789-1.76-1.76 0-0.973 0.787-1.76 1.76-1.76h5.28c0.768 0 1.414 0.495 1.655 1.18l0.006-0.002 1.024 2.929h26.061c0.973 0 1.76 0.787 1.76 1.76 0 0.256-0.058 0.499-0.158 0.721zM11.386 8.853l3.253 9.295 15.123-1.009 3.729-8.286h-22.106z"></path>
</symbol>
<symbol id="book" viewBox="0 0 32 32">
<title>book</title>
<path d="M31.065 25.889l-14.471 5.988c-0.182 0.079-0.383 0.123-0.594 0.123s-0.412-0.044-0.594-0.123l-14.471-5.988c-0.548-0.223-0.935-0.761-0.935-1.389v-23c0-0.829 0.672-1.5 1.5-1.5 0.203 0 0.397 0.041 0.573 0.114h0.001l0.002 0.001c0.004 0.001 0.009 0.004 0.013 0.005l13.911 5.756 13.911-5.756c0.004-0.001 0.009-0.004 0.013-0.005l0.003-0.001c0.176-0.073 0.37-0.114 0.573-0.114 0.828 0 1.5 0.671 1.5 1.5v23c0 0.628-0.387 1.166-0.935 1.389zM14.5 8.503l-11.5-4.759v19.753l11.5 4.759v-19.753zM29 3.744l-11.5 4.759v19.753l11.5-4.759v-19.753zM19.879 10.634l5.5-2.5c0.189-0.086 0.399-0.134 0.621-0.134 0.828 0 1.5 0.671 1.5 1.5 0 0.607-0.361 1.129-0.879 1.365v0l-5.5 2.5c-0.19 0.087-0.4 0.135-0.621 0.135-0.828 0-1.5-0.672-1.5-1.5 0-0.607 0.361-1.13 0.879-1.366zM19.879 16.134v0l5.5-2.5c0.189-0.086 0.399-0.134 0.621-0.134 0.828 0 1.5 0.671 1.5 1.499 0 0.608-0.361 1.13-0.879 1.366l-5.5 2.5c-0.19 0.086-0.4 0.135-0.621 0.135-0.828 0-1.5-0.672-1.5-1.5 0-0.607 0.361-1.13 0.879-1.366zM19.879 21.634v0l5.5-2.5c0.189-0.086 0.399-0.134 0.621-0.134 0.828 0 1.5 0.671 1.5 1.5 0 0.607-0.361 1.129-0.879 1.365v0l-5.5 2.5c-0.19 0.087-0.4 0.135-0.621 0.135-0.828 0-1.5-0.672-1.5-1.5 0-0.607 0.361-1.13 0.879-1.366zM6 8c0.221 0 0.431 0.048 0.621 0.134v0l5.5 2.5c0.518 0.236 0.879 0.759 0.879 1.366 0 0.828-0.672 1.5-1.5 1.5-0.222 0-0.432-0.048-0.621-0.135v0l-5.5-2.5c-0.518-0.236-0.879-0.758-0.879-1.365 0-0.829 0.672-1.5 1.5-1.5zM6 13.5c0.221 0 0.431 0.048 0.621 0.134v0l5.5 2.5c0.518 0.236 0.879 0.759 0.879 1.366 0 0.828-0.672 1.5-1.5 1.5-0.222 0-0.432-0.049-0.621-0.135v0l-5.5-2.5c-0.518-0.236-0.879-0.758-0.879-1.366 0-0.828 0.672-1.499 1.5-1.499zM6 19c0.221 0 0.431 0.048 0.621 0.134v0l5.5 2.5c0.518 0.236 0.879 0.759 0.879 1.366 0 0.828-0.672 1.5-1.5 1.5-0.222 0-0.432-0.048-0.621-0.135v0l-5.5-2.5c-0.518-0.236-0.879-0.758-0.879-1.365 0-0.829 0.672-1.5 1.5-1.5z"></path>
</symbol>
<symbol id="computer" viewBox="0 0 37 32">
<title>computer</title>
<path d="M34.286 26.286h-10.857v2.856l2.286 2.287v0.571h-14.857v-0.571l2.286-2.287v-2.856h-10.857c-0.946 0-1.714-0.768-1.714-1.715v-22.856c0-0.947 0.768-1.714 1.714-1.714h32c0.946 0 1.714 0.767 1.714 1.714v22.856c0 0.947-0.768 1.715-1.714 1.715zM33.714 2.286h-30.857v19.429h30.857v-19.429zM14.857 10.286c0.473 0 0.902 0.192 1.213 0.502v0l1.073 1.073 3.359-3.359c0.311-0.311 0.739-0.502 1.213-0.502 0.946 0 1.714 0.767 1.714 1.714 0 0.473-0.192 0.902-0.502 1.213v0l-4.571 4.571c-0.311 0.31-0.739 0.502-1.213 0.502s-0.902-0.192-1.213-0.502v0l-2.286-2.287c-0.31-0.31-0.502-0.738-0.502-1.211 0-0.947 0.768-1.714 1.714-1.714z"></path>
</symbol>
<symbol id="digital" viewBox="0 0 64 32">
<title>digital</title>
<path d="M6.507 6.827h-6.187c-0.177 0-0.32-0.143-0.32-0.32v-6.187c0-0.177 0.143-0.32 0.32-0.32h6.187c0.177 0 0.32 0.143 0.32 0.32v6.187c0 0.177-0.143 0.32-0.32 0.32zM6.187 0.64h-5.547v5.547h5.547v-5.547zM1.387 0.96h1.173c0.177 0 0.32 0.143 0.32 0.32s-0.143 0.32-0.32 0.32v0h-0.96v0.96c0 0.177-0.143 0.32-0.32 0.32s-0.32-0.143-0.32-0.32v0-1.6h0.427zM0.96 4.267v0c0-0.177 0.143-0.32 0.32-0.32s0.32 0.143 0.32 0.32v0 0.96l0.96 0c0.177 0 0.32 0.143 0.32 0.32s-0.143 0.32-0.32 0.32v0h-1.6v-1.6zM4.267 0.96v0h1.6v1.6c0 0.177-0.143 0.32-0.32 0.32s-0.32-0.143-0.32-0.32v0-0.96h-0.96c-0.177 0-0.32-0.143-0.32-0.32s0.143-0.32 0.32-0.32zM4.267 5.227v-0h0.96v-0.96c0-0.177 0.143-0.32 0.32-0.32s0.32 0.143 0.32 0.32v0 1.6h-1.6c-0.177 0-0.32-0.143-0.32-0.32s0.143-0.32 0.32-0.32z"></path>
</symbol>
<symbol id="facebook" viewBox="0 0 16 32">
<title>facebook</title>
<path d="M14.879 0.245c0 1.817 0 5.072 0 5.072s-3.738-0.373-4.674 1.060c-0.512 0.783-0.208 3.077-0.254 4.724 1.632 0 3.327 0 4.959 0-0.418 1.925-0.719 3.23-1.028 4.896-1.412 0-3.958 0-3.958 0v15.759c0 0-4.673 0-6.87 0 0.001-4.858-0.001-10.526 0-15.697-1.067 0-1.856 0-2.923 0 0-1.817 0-3.14 0-4.958 1.035 0 1.855 0 2.891 0 0.148-3.626 0.203-7.217 2.005-9.046 2.023-2.057 3.954-1.809 9.852-1.809z"></path>
</symbol>
<symbol id="glass" viewBox="0 0 32 32">
<title>glass</title>
<path d="M30.786 26.636c0.53 0.53 0.859 1.264 0.859 2.075 0 1.62-1.314 2.933-2.933 2.933-0.811 0-1.543-0.329-2.075-0.86v0l-8.597-8.596c-1.746 1.031-3.776 1.634-5.95 1.634-6.48 0-11.733-5.253-11.733-11.733s5.253-11.733 11.733-11.733c6.48 0 11.733 5.253 11.733 11.733 0 2.174-0.603 4.204-1.634 5.95l8.597 8.597zM12.089 3.287c-4.86 0-8.8 3.941-8.8 8.802s3.94 8.8 8.8 8.8c4.86 0 8.8-3.94 8.8-8.8s-3.94-8.802-8.8-8.802z"></path>
</symbol>
<symbol id="home" viewBox="0 0 33 32">
<title>home</title>
<path d="M33.032 17.032c0 0.855-0.694 1.547-1.548 1.547-0.408 0-0.776-0.16-1.053-0.418l-0.003 0.004-13.912-13.911-13.881 13.88c-0.28 0.276-0.664 0.445-1.087 0.445-0.855 0-1.548-0.693-1.548-1.547 0-0.439 0.183-0.834 0.476-1.116l14.924-14.925c0.282-0.292 0.677-0.475 1.116-0.475v0 0c0 0 0 0 0.001 0 0.027 0 0.054 0 0.082 0.002 0.004 0 0.008 0.001 0.012 0.001 0.024 0.001 0.046 0.003 0.070 0.005 0.001 0 0.002 0 0.004 0.001 0.379 0.041 0.716 0.219 0.963 0.483l0.001-0.001 6.092 6.092v-1.422c0-0.856 0.693-1.548 1.548-1.548 0.855 0 1.548 0.693 1.548 1.548v4.519l5.779 5.779-0.004 0.004c0.258 0.277 0.419 0.645 0.419 1.053zM29.935 19.613v10.839c0 0.855-0.694 1.548-1.548 1.548h-3.097v-12.387h-6.194v12.387h-14.452c-0.855 0-1.548-0.694-1.548-1.548v-10.839l13.419-13.419 13.419 13.419zM13.935 19.613h-6.194v6.194h6.194v-6.194z"></path>
</symbol>
<symbol id="instagram" viewBox="0 0 32 32">
<title>instagram</title>
<path d="M27.938 31.754h-23.631c-2.175 0-3.938-1.764-3.938-3.94v-23.63c0-2.176 1.764-3.94 3.938-3.94h23.631c2.175 0 3.938 1.764 3.938 3.94v23.63c0 2.176-1.764 3.94-3.938 3.94zM16.123 9.894c-2.457 0-4.567 1.455-5.536 3.545h-0.006c-0.010 0.022-0.017 0.046-0.027 0.068-0.058 0.129-0.108 0.262-0.158 0.395-0.023 0.065-0.049 0.128-0.070 0.192-0.046 0.138-0.082 0.277-0.117 0.418-0.017 0.065-0.037 0.13-0.052 0.197-0.032 0.149-0.054 0.3-0.075 0.453-0.009 0.062-0.021 0.122-0.028 0.185-0.022 0.214-0.036 0.432-0.036 0.654 0 3.371 2.734 6.103 6.105 6.103s6.105-2.732 6.105-6.103c0-0.222-0.014-0.439-0.036-0.654-0.007-0.063-0.020-0.123-0.028-0.185-0.021-0.153-0.043-0.304-0.075-0.453-0.015-0.066-0.034-0.132-0.052-0.197-0.034-0.142-0.071-0.281-0.117-0.418-0.021-0.064-0.047-0.127-0.070-0.192-0.049-0.133-0.1-0.266-0.158-0.395-0.010-0.022-0.017-0.046-0.027-0.068h-0.006c-0.969-2.090-3.079-3.545-5.536-3.545zM28.332 5.365c0-0.87-0.705-1.574-1.575-1.574h-3.151c-0.87 0-1.575 0.704-1.575 1.574v3.152c0 0.87 0.705 1.575 1.575 1.575h3.151c0.87 0 1.575-0.705 1.575-1.575v-3.152zM28.332 13.439h-2.905c0.224 0.816 0.345 1.675 0.345 2.561 0 5.329-4.32 9.648-9.649 9.648s-9.649-4.319-9.649-9.648c0-0.886 0.121-1.745 0.345-2.561h-2.905v13.194c0 0.871 0.705 1.577 1.575 1.577h21.268c0.87 0 1.575-0.705 1.575-1.577v-13.194z"></path>
</symbol>
<symbol id="line_graph" viewBox="0 0 32 32">
<title>line_graph</title>
<path d="M30.5 32h-29c-0.828 0-1.5-0.672-1.5-1.5v-29.001c0-0.827 0.672-1.499 1.5-1.499h29c0.828 0 1.5 0.672 1.5 1.499v29.001c0 0.828-0.672 1.5-1.5 1.5zM29 3h-26v26h26v-26zM5.215 16.239v-0.002l4-2.498c0.229-0.141 0.497-0.222 0.785-0.222 0.311 0 0.6 0.095 0.84 0.257l0.006-0.008 6.631 4.42 7.638-5.391c0.248-0.182 0.554-0.29 0.885-0.29 0.828 0 1.5 0.672 1.5 1.5 0 0.5-0.245 0.943-0.622 1.216h0.001l-8.501 6c-0.246 0.179-0.55 0.284-0.878 0.284-0.321 0-0.618-0.101-0.861-0.272l-6.657-4.438-3.135 1.96c-0.241 0.165-0.533 0.262-0.847 0.262-0.828 0-1.5-0.672-1.5-1.5 0-0.541 0.286-1.014 0.715-1.278z"></path>
</symbol>
<symbol id="pinterest" viewBox="0 0 26 32">
<title>pinterest</title>
<path d="M11.14 20.743c-0.257 1.025-0.517 2.1-0.785 3.151-0.265 1.036-0.498 2.087-0.884 3.040-0.639 1.577-1.45 3.1-2.514 4.334-0.708 0.821-0.558 0.494-0.77 0.449-0.162-0.034-0.176-0.193-0.208-0.425-0.174-1.253-0.055-2.702 0.009-4.11 0.074-1.605 0.411-2.939 0.725-4.272 0.596-2.54 1.164-5.030 1.766-7.586 0.039-0.17 0.148-0.45 0.111-0.548-0.273-0.71-0.45-1.348-0.528-2.094-0.090-0.855-0.021-1.654 0.171-2.391 0.341-1.302 1.124-2.455 2.331-2.878 0.768-0.266 1.618-0.145 2.135 0.162 0.532 0.319 0.897 0.821 1.067 1.534 0.182 0.757 0.048 1.663-0.098 2.327-0.329 1.5-0.761 2.626-1.153 4.074-0.194 0.718-0.415 1.455-0.233 2.23 0.167 0.711 0.538 1.201 1.042 1.569 0.524 0.382 1.145 0.59 2 0.56 1.511-0.053 2.561-1.019 3.263-1.93 1.124-1.458 1.803-3.426 2.062-5.767 0.082-0.756 0.144-1.623 0.086-2.479-0.108-1.58-0.602-2.852-1.387-3.836-0.746-0.939-1.804-1.685-3.092-2.106-1.276-0.416-3.042-0.555-4.612-0.287-2.853 0.489-4.864 2.11-6.049 4.348-0.62 1.172-1.030 2.519-1.030 4.197 0 1.294 0.319 2.295 0.834 3.077 0.164 0.247 0.404 0.452 0.564 0.735 0.228 0.401-0.034 0.998-0.146 1.433-0.135 0.523-0.15 1.246-0.761 1.258-0.254 0.005-0.571-0.18-0.785-0.299-1.606-0.887-2.581-2.502-2.981-4.596-0.244-1.273-0.242-2.756 0-3.985 0.234-1.19 0.67-2.287 1.153-3.177 1.002-1.85 2.47-3.329 4.257-4.385 1.374-0.812 2.923-1.382 4.809-1.657 0.625-0.091 1.273-0.129 1.975-0.162 2.053-0.096 3.919 0.369 5.324 0.997 1.483 0.663 2.667 1.546 3.668 2.641 1.031 1.126 1.782 2.436 2.257 4.073 0.249 0.852 0.49 1.762 0.49 2.815 0 1.056-0.223 1.985-0.379 2.914-0.583 3.481-2.239 6.327-4.724 7.948-0.602 0.391-1.33 0.754-2.159 0.996-0.821 0.239-1.758 0.418-2.761 0.348-0.974-0.066-1.771-0.331-2.441-0.71-0.665-0.375-1.223-0.836-1.62-1.531z"></path>
</symbol>
<symbol id="twitter" viewBox="0 0 38 32">
<title>twitter</title>
<path d="M25.473 0.874c2.959-0.052 4.534 1.025 6.038 2.396 1.277-0.109 2.937-0.822 3.914-1.319 0.316-0.172 0.633-0.346 0.95-0.519-0.559 1.508-1.315 2.689-2.479 3.587-0.259 0.198-0.515 0.467-0.839 0.593 0 0.006 0 0.013 0 0.019 1.658-0.016 3.025-0.765 4.324-1.171 0 0.006 0 0.013 0 0.019-0.682 1.084-1.606 2.185-2.591 2.973-0.397 0.316-0.796 0.631-1.193 0.947 0.022 1.756-0.026 3.431-0.353 4.906-1.908 8.575-6.964 14.396-14.966 16.89-2.874 0.895-7.517 1.263-10.81 0.445-1.632-0.404-3.107-0.863-4.49-1.468-0.769-0.336-1.482-0.7-2.163-1.116-0.224-0.135-0.447-0.272-0.671-0.407 0.742 0.022 1.612 0.227 2.441 0.092 0.752-0.121 1.488-0.089 2.182-0.24 1.728-0.38 3.263-0.881 4.583-1.655 0.641-0.375 1.615-0.815 2.070-1.356-0.858 0.015-1.636-0.185-2.273-0.409-2.471-0.873-3.91-2.477-4.847-4.887 0.749 0.083 2.906 0.278 3.411-0.148-0.943-0.052-1.849-0.598-2.497-1.004-1.988-1.244-3.609-3.329-3.597-6.54 0.262 0.124 0.522 0.247 0.783 0.371 0.5 0.211 1.008 0.323 1.603 0.447 0.252 0.052 0.755 0.199 1.044 0.092-0.013 0-0.025 0-0.038 0-0.384-0.447-1.011-0.745-1.398-1.226-1.276-1.584-2.47-4.023-1.715-6.929 0.192-0.737 0.496-1.388 0.82-1.988 0.013 0.006 0.025 0.012 0.038 0.017 0.148 0.311 0.48 0.54 0.689 0.8 0.652 0.807 1.455 1.533 2.273 2.173 2.79 2.182 5.302 3.523 9.337 4.515 1.024 0.253 2.207 0.445 3.43 0.447-0.343-0.999-0.233-2.618 0.036-3.585 0.681-2.435 2.157-4.188 4.324-5.129 0.518-0.224 1.092-0.388 1.696-0.521 0.311-0.036 0.621-0.074 0.932-0.111z"></path>
</symbol>
</defs>
</svg>
